<mxfile host="app.diagrams.net" modified="2023-06-16T18:38:50.946Z" agent="Mozilla/5.0 (Macintosh; Intel Mac OS X 10_15_7) AppleWebKit/537.36 (KHTML, like Gecko) Chrome/114.0.0.0 Safari/537.36" etag="E4o2dwi93eV7mBnySYtw" version="21.3.8" type="github">
  <diagram id="pDua_eUI4pE_ARMQOX0n" name="Page-1">
    <mxGraphModel dx="3208" dy="395" grid="1" gridSize="10" guides="1" tooltips="1" connect="1" arrows="1" fold="1" page="1" pageScale="1" pageWidth="850" pageHeight="1100" math="0" shadow="0">
      <root>
        <mxCell id="0" />
        <mxCell id="1" parent="0" />
        <mxCell id="Tsf_xWovIFk0rkydPiFg-57" value="&lt;b&gt;&lt;br&gt;&lt;/b&gt;" style="rounded=0;whiteSpace=wrap;html=1;strokeColor=default;" vertex="1" parent="1">
          <mxGeometry x="-1060" y="1470" width="1125" height="300" as="geometry" />
        </mxCell>
        <mxCell id="Tsf_xWovIFk0rkydPiFg-96" value="" style="endArrow=blockThin;html=1;exitX=1;exitY=0.5;exitDx=0;exitDy=0;endFill=1;jumpSize=3;shadow=0;fillColor=#fff2cc;strokeColor=default;opacity=80;" edge="1" parent="1" source="Tsf_xWovIFk0rkydPiFg-83">
          <mxGeometry width="50" height="50" relative="1" as="geometry">
            <mxPoint x="-594" y="1579" as="sourcePoint" />
            <mxPoint x="-554" y="1529" as="targetPoint" />
          </mxGeometry>
        </mxCell>
        <mxCell id="J4n5a6vh2Bp-ceeqpoy--10" style="edgeStyle=orthogonalEdgeStyle;rounded=0;orthogonalLoop=1;jettySize=auto;html=1;exitX=1;exitY=0.5;exitDx=0;exitDy=0;endArrow=none;endFill=0;" parent="1" source="J4n5a6vh2Bp-ceeqpoy--8" target="J4n5a6vh2Bp-ceeqpoy--9" edge="1">
          <mxGeometry relative="1" as="geometry" />
        </mxCell>
        <mxCell id="J4n5a6vh2Bp-ceeqpoy--11" style="edgeStyle=orthogonalEdgeStyle;rounded=0;orthogonalLoop=1;jettySize=auto;html=1;exitX=0.5;exitY=1;exitDx=0;exitDy=0;entryX=0.5;entryY=0;entryDx=0;entryDy=0;endArrow=none;endFill=0;" parent="1" source="J4n5a6vh2Bp-ceeqpoy--8" target="J4n5a6vh2Bp-ceeqpoy--12" edge="1">
          <mxGeometry relative="1" as="geometry">
            <mxPoint x="260" y="360" as="targetPoint" />
          </mxGeometry>
        </mxCell>
        <mxCell id="J4n5a6vh2Bp-ceeqpoy--18" style="edgeStyle=orthogonalEdgeStyle;rounded=0;orthogonalLoop=1;jettySize=auto;html=1;exitX=0;exitY=0.5;exitDx=0;exitDy=0;endArrow=none;endFill=0;" parent="1" source="J4n5a6vh2Bp-ceeqpoy--8" edge="1">
          <mxGeometry relative="1" as="geometry">
            <mxPoint x="80" y="180" as="targetPoint" />
          </mxGeometry>
        </mxCell>
        <mxCell id="J4n5a6vh2Bp-ceeqpoy--8" value="&lt;div align=&quot;center&quot;&gt;in &lt;br&gt;&lt;/div&gt;&lt;div align=&quot;center&quot;&gt;map?&lt;br&gt;&lt;/div&gt;" style="rhombus;whiteSpace=wrap;html=1;align=center;" parent="1" vertex="1">
          <mxGeometry x="220" y="140" width="80" height="80" as="geometry" />
        </mxCell>
        <mxCell id="J4n5a6vh2Bp-ceeqpoy--14" style="edgeStyle=orthogonalEdgeStyle;rounded=0;orthogonalLoop=1;jettySize=auto;html=1;exitX=0.5;exitY=1;exitDx=0;exitDy=0;endArrow=none;endFill=0;" parent="1" source="J4n5a6vh2Bp-ceeqpoy--9" target="J4n5a6vh2Bp-ceeqpoy--13" edge="1">
          <mxGeometry relative="1" as="geometry" />
        </mxCell>
        <mxCell id="J4n5a6vh2Bp-ceeqpoy--17" style="edgeStyle=orthogonalEdgeStyle;rounded=0;orthogonalLoop=1;jettySize=auto;html=1;exitX=1;exitY=0.5;exitDx=0;exitDy=0;entryX=0;entryY=0.5;entryDx=0;entryDy=0;endArrow=none;endFill=0;" parent="1" source="J4n5a6vh2Bp-ceeqpoy--9" target="J4n5a6vh2Bp-ceeqpoy--16" edge="1">
          <mxGeometry relative="1" as="geometry" />
        </mxCell>
        <mxCell id="J4n5a6vh2Bp-ceeqpoy--9" value="&lt;div&gt;is &lt;br&gt;&lt;/div&gt;&lt;div&gt;interest?&lt;br&gt;&lt;/div&gt;" style="rhombus;whiteSpace=wrap;html=1;" parent="1" vertex="1">
          <mxGeometry x="440" y="140" width="80" height="80" as="geometry" />
        </mxCell>
        <mxCell id="J4n5a6vh2Bp-ceeqpoy--12" value="&lt;div&gt;add interest/data&lt;/div&gt;&lt;div&gt;into the map,&lt;/div&gt;&lt;div&gt;and init counter&lt;br&gt;&lt;/div&gt;" style="rounded=0;whiteSpace=wrap;html=1;" parent="1" vertex="1">
          <mxGeometry x="200" y="300" width="120" height="60" as="geometry" />
        </mxCell>
        <mxCell id="J4n5a6vh2Bp-ceeqpoy--13" value="&lt;div&gt;compute EMA,&lt;/div&gt;&lt;div&gt;remove corresponding interest, &lt;br&gt;&lt;/div&gt;&lt;div&gt;++ data counter&lt;br&gt;&lt;/div&gt;" style="rounded=0;whiteSpace=wrap;html=1;" parent="1" vertex="1">
          <mxGeometry x="380" y="300" width="200" height="60" as="geometry" />
        </mxCell>
        <mxCell id="J4n5a6vh2Bp-ceeqpoy--16" value="&lt;div&gt;++&lt;/div&gt;&lt;div&gt;interest counter&lt;br&gt;&lt;/div&gt;" style="rounded=0;whiteSpace=wrap;html=1;" parent="1" vertex="1">
          <mxGeometry x="630" y="150" width="120" height="60" as="geometry" />
        </mxCell>
        <mxCell id="J4n5a6vh2Bp-ceeqpoy--19" value="I/D" style="text;html=1;strokeColor=none;fillColor=none;align=center;verticalAlign=middle;whiteSpace=wrap;rounded=0;" parent="1" vertex="1">
          <mxGeometry x="160" y="160" width="40" height="20" as="geometry" />
        </mxCell>
        <mxCell id="J4n5a6vh2Bp-ceeqpoy--20" value="" style="endArrow=classic;html=1;entryX=0;entryY=0.5;entryDx=0;entryDy=0;" parent="1" target="J4n5a6vh2Bp-ceeqpoy--19" edge="1">
          <mxGeometry width="50" height="50" relative="1" as="geometry">
            <mxPoint x="100" y="170" as="sourcePoint" />
            <mxPoint x="110" y="100" as="targetPoint" />
          </mxGeometry>
        </mxCell>
        <mxCell id="Tsf_xWovIFk0rkydPiFg-1" value="&lt;b&gt;&lt;br&gt;&lt;/b&gt;" style="rounded=0;whiteSpace=wrap;html=1;" vertex="1" parent="1">
          <mxGeometry x="-2060" y="910" width="1125" height="280" as="geometry" />
        </mxCell>
        <mxCell id="Tsf_xWovIFk0rkydPiFg-2" value="C" style="ellipse;whiteSpace=wrap;html=1;aspect=fixed;fillColor=#dae8fc;strokeColor=#6c8ebf;" vertex="1" parent="1">
          <mxGeometry x="-2015" y="1010" width="30" height="30" as="geometry" />
        </mxCell>
        <mxCell id="Tsf_xWovIFk0rkydPiFg-3" value="D" style="ellipse;whiteSpace=wrap;html=1;aspect=fixed;fillColor=#f8cecc;strokeColor=#b85450;" vertex="1" parent="1">
          <mxGeometry x="-1985" y="1110" width="30" height="30" as="geometry" />
        </mxCell>
        <mxCell id="Tsf_xWovIFk0rkydPiFg-4" value="A" style="ellipse;whiteSpace=wrap;html=1;aspect=fixed;fillColor=#fff2cc;strokeColor=#d6b656;" vertex="1" parent="1">
          <mxGeometry x="-1925" y="940" width="30" height="30" as="geometry" />
        </mxCell>
        <mxCell id="Tsf_xWovIFk0rkydPiFg-5" value="B" style="ellipse;whiteSpace=wrap;html=1;aspect=fixed;fillColor=#d5e8d4;strokeColor=#82b366;" vertex="1" parent="1">
          <mxGeometry x="-1835" y="1010" width="30" height="30" as="geometry" />
        </mxCell>
        <mxCell id="Tsf_xWovIFk0rkydPiFg-6" value="E" style="ellipse;whiteSpace=wrap;html=1;aspect=fixed;fillColor=#ffe6cc;strokeColor=#d79b00;" vertex="1" parent="1">
          <mxGeometry x="-1855" y="1110" width="30" height="30" as="geometry" />
        </mxCell>
        <mxCell id="Tsf_xWovIFk0rkydPiFg-7" value="" style="endArrow=classic;html=1;entryX=0;entryY=0.5;entryDx=0;entryDy=0;exitX=0.5;exitY=1;exitDx=0;exitDy=0;fillColor=#fff2cc;strokeColor=#d6b656;" edge="1" parent="1" source="Tsf_xWovIFk0rkydPiFg-4" target="Tsf_xWovIFk0rkydPiFg-5">
          <mxGeometry width="50" height="50" relative="1" as="geometry">
            <mxPoint x="-1945" y="1050" as="sourcePoint" />
            <mxPoint x="-1895" y="1000" as="targetPoint" />
          </mxGeometry>
        </mxCell>
        <mxCell id="Tsf_xWovIFk0rkydPiFg-8" value="" style="endArrow=classic;html=1;exitX=0.5;exitY=1;exitDx=0;exitDy=0;fillColor=#fff2cc;strokeColor=#d6b656;" edge="1" parent="1" source="Tsf_xWovIFk0rkydPiFg-4" target="Tsf_xWovIFk0rkydPiFg-3">
          <mxGeometry width="50" height="50" relative="1" as="geometry">
            <mxPoint x="-1889.3933982822018" y="975.6066017177982" as="sourcePoint" />
            <mxPoint x="-1825" y="1035" as="targetPoint" />
          </mxGeometry>
        </mxCell>
        <mxCell id="Tsf_xWovIFk0rkydPiFg-9" value="" style="endArrow=classic;html=1;entryX=1;entryY=0;entryDx=0;entryDy=0;fillColor=#fff2cc;strokeColor=#d6b656;" edge="1" parent="1" target="Tsf_xWovIFk0rkydPiFg-2">
          <mxGeometry width="50" height="50" relative="1" as="geometry">
            <mxPoint x="-1910" y="970" as="sourcePoint" />
            <mxPoint x="-1979.5850884616343" y="1110.0014785258884" as="targetPoint" />
          </mxGeometry>
        </mxCell>
        <mxCell id="Tsf_xWovIFk0rkydPiFg-10" value="" style="endArrow=classic;html=1;exitX=0.5;exitY=1;exitDx=0;exitDy=0;entryX=0;entryY=0;entryDx=0;entryDy=0;fillColor=#fff2cc;strokeColor=#d6b656;" edge="1" parent="1" source="Tsf_xWovIFk0rkydPiFg-4" target="Tsf_xWovIFk0rkydPiFg-6">
          <mxGeometry width="50" height="50" relative="1" as="geometry">
            <mxPoint x="-1900" y="980" as="sourcePoint" />
            <mxPoint x="-1954.5850884616343" y="1121.0114785258884" as="targetPoint" />
          </mxGeometry>
        </mxCell>
        <mxCell id="Tsf_xWovIFk0rkydPiFg-11" value="C" style="ellipse;whiteSpace=wrap;html=1;aspect=fixed;fillColor=#dae8fc;strokeColor=#6c8ebf;" vertex="1" parent="1">
          <mxGeometry x="-1715" y="1010" width="30" height="30" as="geometry" />
        </mxCell>
        <mxCell id="Tsf_xWovIFk0rkydPiFg-12" value="D" style="ellipse;whiteSpace=wrap;html=1;aspect=fixed;fillColor=#f8cecc;strokeColor=#b85450;" vertex="1" parent="1">
          <mxGeometry x="-1645" y="1110" width="30" height="30" as="geometry" />
        </mxCell>
        <mxCell id="Tsf_xWovIFk0rkydPiFg-13" value="A" style="ellipse;whiteSpace=wrap;html=1;aspect=fixed;fillColor=#fff2cc;strokeColor=#d6b656;" vertex="1" parent="1">
          <mxGeometry x="-1625" y="940" width="30" height="30" as="geometry" />
        </mxCell>
        <mxCell id="Tsf_xWovIFk0rkydPiFg-14" value="B" style="ellipse;whiteSpace=wrap;html=1;aspect=fixed;fillColor=#d5e8d4;strokeColor=#82b366;" vertex="1" parent="1">
          <mxGeometry x="-1535" y="1010" width="30" height="30" as="geometry" />
        </mxCell>
        <mxCell id="Tsf_xWovIFk0rkydPiFg-15" value="E" style="ellipse;whiteSpace=wrap;html=1;aspect=fixed;fillColor=#ffe6cc;strokeColor=#d79b00;" vertex="1" parent="1">
          <mxGeometry x="-1535" y="1070" width="30" height="30" as="geometry" />
        </mxCell>
        <mxCell id="Tsf_xWovIFk0rkydPiFg-16" value="" style="endArrow=none;html=1;exitX=0.5;exitY=1;exitDx=0;exitDy=0;endFill=0;startArrow=classic;startFill=1;entryX=0.5;entryY=0;entryDx=0;entryDy=0;fillColor=#f8cecc;strokeColor=#b85450;" edge="1" parent="1" source="Tsf_xWovIFk0rkydPiFg-13" target="Tsf_xWovIFk0rkydPiFg-12">
          <mxGeometry width="50" height="50" relative="1" as="geometry">
            <mxPoint x="-1589.3933982822018" y="975.6066017177982" as="sourcePoint" />
            <mxPoint x="-1628" y="1110" as="targetPoint" />
          </mxGeometry>
        </mxCell>
        <mxCell id="Tsf_xWovIFk0rkydPiFg-17" value="" style="endArrow=none;html=1;exitX=0;exitY=0.5;exitDx=0;exitDy=0;endFill=0;startArrow=classic;startFill=1;entryX=0.503;entryY=-0.021;entryDx=0;entryDy=0;entryPerimeter=0;fillColor=#f8cecc;strokeColor=#b85450;" edge="1" parent="1" source="Tsf_xWovIFk0rkydPiFg-14" target="Tsf_xWovIFk0rkydPiFg-12">
          <mxGeometry width="50" height="50" relative="1" as="geometry">
            <mxPoint x="-1600" y="980" as="sourcePoint" />
            <mxPoint x="-1630" y="1112" as="targetPoint" />
          </mxGeometry>
        </mxCell>
        <mxCell id="Tsf_xWovIFk0rkydPiFg-18" value="" style="endArrow=none;html=1;exitX=0.5;exitY=1;exitDx=0;exitDy=0;endFill=0;startArrow=classic;startFill=1;entryX=0.5;entryY=0;entryDx=0;entryDy=0;fillColor=#f8cecc;strokeColor=#b85450;" edge="1" parent="1" source="Tsf_xWovIFk0rkydPiFg-11" target="Tsf_xWovIFk0rkydPiFg-12">
          <mxGeometry width="50" height="50" relative="1" as="geometry">
            <mxPoint x="-1525.0000000000002" y="1035" as="sourcePoint" />
            <mxPoint x="-1665" y="1110" as="targetPoint" />
          </mxGeometry>
        </mxCell>
        <mxCell id="Tsf_xWovIFk0rkydPiFg-19" value="" style="endArrow=none;html=1;exitX=0;exitY=0.5;exitDx=0;exitDy=0;endFill=0;startArrow=classic;startFill=1;fillColor=#f8cecc;strokeColor=#b85450;" edge="1" parent="1" source="Tsf_xWovIFk0rkydPiFg-15">
          <mxGeometry width="50" height="50" relative="1" as="geometry">
            <mxPoint x="-1690.0000000000002" y="1050" as="sourcePoint" />
            <mxPoint x="-1630" y="1110" as="targetPoint" />
          </mxGeometry>
        </mxCell>
        <mxCell id="Tsf_xWovIFk0rkydPiFg-20" value="&lt;b&gt;Broadcast Medium&lt;/b&gt;" style="text;html=1;strokeColor=none;fillColor=none;align=center;verticalAlign=middle;whiteSpace=wrap;rounded=0;" vertex="1" parent="1">
          <mxGeometry x="-1062" y="911" width="120" height="20" as="geometry" />
        </mxCell>
        <mxCell id="Tsf_xWovIFk0rkydPiFg-21" value="/file/xyg.jpg" style="text;html=1;align=center;verticalAlign=middle;whiteSpace=wrap;rounded=0;fontStyle=0;glass=0;strokeColor=#000000;fillColor=#ffffff;" vertex="1" parent="1">
          <mxGeometry x="-1960" y="980" width="100" height="20" as="geometry" />
        </mxCell>
        <mxCell id="Tsf_xWovIFk0rkydPiFg-22" value="/file/xyg.jpg" style="text;html=1;align=center;verticalAlign=middle;whiteSpace=wrap;rounded=0;fontStyle=0;glass=0;strokeColor=#000000;fillColor=#ffffff;" vertex="1" parent="1">
          <mxGeometry x="-1677" y="1083" width="100" height="20" as="geometry" />
        </mxCell>
        <mxCell id="Tsf_xWovIFk0rkydPiFg-23" value="At t = 0ms node A&amp;nbsp;&lt;br&gt;multicasts" style="text;html=1;strokeColor=none;fillColor=none;align=center;verticalAlign=middle;whiteSpace=wrap;rounded=0;glass=0;" vertex="1" parent="1">
          <mxGeometry x="-2060" y="945" width="140" height="20" as="geometry" />
        </mxCell>
        <mxCell id="Tsf_xWovIFk0rkydPiFg-24" value="At t = 10ms node D&lt;br&gt;multicasts same interest" style="text;html=1;strokeColor=none;fillColor=none;align=center;verticalAlign=middle;whiteSpace=wrap;rounded=0;glass=0;" vertex="1" parent="1">
          <mxGeometry x="-1615" y="1130" width="140" height="20" as="geometry" />
        </mxCell>
        <mxCell id="Tsf_xWovIFk0rkydPiFg-25" value="C" style="ellipse;whiteSpace=wrap;html=1;aspect=fixed;fillColor=#dae8fc;strokeColor=#6c8ebf;" vertex="1" parent="1">
          <mxGeometry x="-1372" y="1000" width="30" height="30" as="geometry" />
        </mxCell>
        <mxCell id="Tsf_xWovIFk0rkydPiFg-26" value="D" style="ellipse;whiteSpace=wrap;html=1;aspect=fixed;fillColor=#f8cecc;strokeColor=#b85450;" vertex="1" parent="1">
          <mxGeometry x="-1282" y="1110" width="30" height="30" as="geometry" />
        </mxCell>
        <mxCell id="Tsf_xWovIFk0rkydPiFg-27" value="A" style="ellipse;whiteSpace=wrap;html=1;aspect=fixed;fillColor=#fff2cc;strokeColor=#d6b656;" vertex="1" parent="1">
          <mxGeometry x="-1192" y="920" width="30" height="30" as="geometry" />
        </mxCell>
        <mxCell id="Tsf_xWovIFk0rkydPiFg-28" value="B" style="ellipse;whiteSpace=wrap;html=1;aspect=fixed;fillColor=#d5e8d4;strokeColor=#82b366;" vertex="1" parent="1">
          <mxGeometry x="-1052" y="990" width="30" height="30" as="geometry" />
        </mxCell>
        <mxCell id="Tsf_xWovIFk0rkydPiFg-29" value="E" style="ellipse;whiteSpace=wrap;html=1;aspect=fixed;fillColor=#ffe6cc;strokeColor=#d79b00;" vertex="1" parent="1">
          <mxGeometry x="-1092" y="1110" width="30" height="30" as="geometry" />
        </mxCell>
        <mxCell id="Tsf_xWovIFk0rkydPiFg-30" value="" style="endArrow=blockThin;html=1;exitX=1;exitY=0;exitDx=0;exitDy=0;endFill=1;jumpSize=3;shadow=0;fillColor=#dae8fc;strokeColor=#6c8ebf;" edge="1" parent="1" source="Tsf_xWovIFk0rkydPiFg-25">
          <mxGeometry width="50" height="50" relative="1" as="geometry">
            <mxPoint x="-1352" y="1020" as="sourcePoint" />
            <mxPoint x="-1312" y="980" as="targetPoint" />
          </mxGeometry>
        </mxCell>
        <mxCell id="Tsf_xWovIFk0rkydPiFg-31" value="" style="endArrow=blockThin;html=1;exitX=1;exitY=0;exitDx=0;exitDy=0;entryX=0.487;entryY=0.655;entryDx=0;entryDy=0;entryPerimeter=0;endFill=1;jumpSize=3;shadow=0;fillColor=#dae8fc;strokeColor=#6c8ebf;" edge="1" parent="1">
          <mxGeometry width="50" height="50" relative="1" as="geometry">
            <mxPoint x="-1341.3933982822016" y="1014.3933982822018" as="sourcePoint" />
            <mxPoint x="-1302.235" y="1010.9500000000003" as="targetPoint" />
          </mxGeometry>
        </mxCell>
        <mxCell id="Tsf_xWovIFk0rkydPiFg-32" value="" style="endArrow=blockThin;html=1;exitX=1;exitY=1;exitDx=0;exitDy=0;endFill=1;jumpSize=3;shadow=0;fillColor=#dae8fc;strokeColor=#6c8ebf;" edge="1" parent="1" source="Tsf_xWovIFk0rkydPiFg-25">
          <mxGeometry width="50" height="50" relative="1" as="geometry">
            <mxPoint x="-1345" y="1028" as="sourcePoint" />
            <mxPoint x="-1302" y="1040" as="targetPoint" />
          </mxGeometry>
        </mxCell>
        <mxCell id="Tsf_xWovIFk0rkydPiFg-33" value="" style="endArrow=blockThin;html=1;exitX=0;exitY=0;exitDx=0;exitDy=0;endFill=1;jumpSize=3;shadow=0;fillColor=#f8cecc;strokeColor=#b85450;" edge="1" parent="1" source="Tsf_xWovIFk0rkydPiFg-26">
          <mxGeometry width="50" height="50" relative="1" as="geometry">
            <mxPoint x="-1262" y="1104" as="sourcePoint" />
            <mxPoint x="-1292" y="1090" as="targetPoint" />
          </mxGeometry>
        </mxCell>
        <mxCell id="Tsf_xWovIFk0rkydPiFg-34" value="" style="endArrow=blockThin;html=1;exitX=0.5;exitY=0;exitDx=0;exitDy=0;endFill=1;jumpSize=3;shadow=0;fillColor=#f8cecc;strokeColor=#b85450;" edge="1" parent="1" source="Tsf_xWovIFk0rkydPiFg-26">
          <mxGeometry width="50" height="50" relative="1" as="geometry">
            <mxPoint x="-1247.0033982822015" y="1113.553398282202" as="sourcePoint" />
            <mxPoint x="-1252" y="1080" as="targetPoint" />
          </mxGeometry>
        </mxCell>
        <mxCell id="Tsf_xWovIFk0rkydPiFg-35" value="" style="endArrow=blockThin;html=1;endFill=1;jumpSize=3;shadow=0;fillColor=#f8cecc;strokeColor=#b85450;" edge="1" parent="1">
          <mxGeometry width="50" height="50" relative="1" as="geometry">
            <mxPoint x="-1250.6100000000001" y="1127.1599999999999" as="sourcePoint" />
            <mxPoint x="-1212" y="1127" as="targetPoint" />
          </mxGeometry>
        </mxCell>
        <mxCell id="Tsf_xWovIFk0rkydPiFg-36" value="" style="endArrow=blockThin;html=1;exitX=0.988;exitY=0.293;exitDx=0;exitDy=0;exitPerimeter=0;endFill=1;jumpSize=3;shadow=0;fillColor=#f8cecc;strokeColor=#b85450;" edge="1" parent="1" source="Tsf_xWovIFk0rkydPiFg-26">
          <mxGeometry width="50" height="50" relative="1" as="geometry">
            <mxPoint x="-1246" y="1120" as="sourcePoint" />
            <mxPoint x="-1212" y="1100" as="targetPoint" />
          </mxGeometry>
        </mxCell>
        <mxCell id="Tsf_xWovIFk0rkydPiFg-37" value="" style="endArrow=blockThin;html=1;exitX=0.5;exitY=1;exitDx=0;exitDy=0;endFill=1;jumpSize=3;shadow=0;fillColor=#dae8fc;strokeColor=#6c8ebf;" edge="1" parent="1" source="Tsf_xWovIFk0rkydPiFg-25">
          <mxGeometry width="50" height="50" relative="1" as="geometry">
            <mxPoint x="-1335" y="1038" as="sourcePoint" />
            <mxPoint x="-1332" y="1060" as="targetPoint" />
          </mxGeometry>
        </mxCell>
        <mxCell id="Tsf_xWovIFk0rkydPiFg-38" value="" style="endArrow=blockThin;html=1;exitX=0;exitY=0.5;exitDx=0;exitDy=0;endFill=1;jumpSize=3;shadow=0;fillColor=#fff2cc;strokeColor=#d6b656;" edge="1" parent="1" source="Tsf_xWovIFk0rkydPiFg-27">
          <mxGeometry width="50" height="50" relative="1" as="geometry">
            <mxPoint x="-1212" y="1030" as="sourcePoint" />
            <mxPoint x="-1222" y="950" as="targetPoint" />
          </mxGeometry>
        </mxCell>
        <mxCell id="Tsf_xWovIFk0rkydPiFg-39" value="" style="endArrow=blockThin;html=1;exitX=0;exitY=1;exitDx=0;exitDy=0;endFill=1;jumpSize=3;shadow=0;fillColor=#fff2cc;strokeColor=#d6b656;" edge="1" parent="1" source="Tsf_xWovIFk0rkydPiFg-27">
          <mxGeometry width="50" height="50" relative="1" as="geometry">
            <mxPoint x="-1202" y="1000" as="sourcePoint" />
            <mxPoint x="-1202" y="980" as="targetPoint" />
          </mxGeometry>
        </mxCell>
        <mxCell id="Tsf_xWovIFk0rkydPiFg-40" value="" style="endArrow=blockThin;html=1;exitX=1;exitY=0.5;exitDx=0;exitDy=0;endFill=1;jumpSize=3;shadow=0;fillColor=#fff2cc;strokeColor=#d6b656;" edge="1" parent="1" source="Tsf_xWovIFk0rkydPiFg-27">
          <mxGeometry width="50" height="50" relative="1" as="geometry">
            <mxPoint x="-1162" y="1010" as="sourcePoint" />
            <mxPoint x="-1122" y="960" as="targetPoint" />
          </mxGeometry>
        </mxCell>
        <mxCell id="Tsf_xWovIFk0rkydPiFg-41" value="" style="endArrow=blockThin;html=1;exitX=0.766;exitY=0.987;exitDx=0;exitDy=0;exitPerimeter=0;endFill=1;jumpSize=3;shadow=0;fillColor=#fff2cc;strokeColor=#d6b656;" edge="1" parent="1" source="Tsf_xWovIFk0rkydPiFg-27">
          <mxGeometry width="50" height="50" relative="1" as="geometry">
            <mxPoint x="-1182" y="1030" as="sourcePoint" />
            <mxPoint x="-1152" y="980" as="targetPoint" />
          </mxGeometry>
        </mxCell>
        <mxCell id="Tsf_xWovIFk0rkydPiFg-42" value="" style="endArrow=blockThin;html=1;exitX=0;exitY=0.5;exitDx=0;exitDy=0;endFill=1;jumpSize=3;shadow=0;fillColor=#ffe6cc;strokeColor=#d79b00;" edge="1" parent="1" source="Tsf_xWovIFk0rkydPiFg-29">
          <mxGeometry width="50" height="50" relative="1" as="geometry">
            <mxPoint x="-1122" y="1100" as="sourcePoint" />
            <mxPoint x="-1132" y="1125" as="targetPoint" />
          </mxGeometry>
        </mxCell>
        <mxCell id="Tsf_xWovIFk0rkydPiFg-43" value="" style="endArrow=blockThin;html=1;exitX=0;exitY=0;exitDx=0;exitDy=0;endFill=1;jumpSize=3;shadow=0;fillColor=#ffe6cc;strokeColor=#d79b00;" edge="1" parent="1" source="Tsf_xWovIFk0rkydPiFg-29">
          <mxGeometry width="50" height="50" relative="1" as="geometry">
            <mxPoint x="-1132" y="1110" as="sourcePoint" />
            <mxPoint x="-1132" y="1100" as="targetPoint" />
          </mxGeometry>
        </mxCell>
        <mxCell id="Tsf_xWovIFk0rkydPiFg-44" value="" style="endArrow=blockThin;html=1;exitX=0.238;exitY=-0.068;exitDx=0;exitDy=0;exitPerimeter=0;endFill=1;jumpSize=3;shadow=0;fillColor=#ffe6cc;strokeColor=#d79b00;" edge="1" parent="1">
          <mxGeometry width="50" height="50" relative="1" as="geometry">
            <mxPoint x="-1083.86" y="1108.96" as="sourcePoint" />
            <mxPoint x="-1101" y="1071" as="targetPoint" />
          </mxGeometry>
        </mxCell>
        <mxCell id="Tsf_xWovIFk0rkydPiFg-45" value="" style="endArrow=blockThin;html=1;endFill=1;jumpSize=3;shadow=0;fillColor=#ffe6cc;strokeColor=#d79b00;" edge="1" parent="1">
          <mxGeometry width="50" height="50" relative="1" as="geometry">
            <mxPoint x="-1068" y="1109" as="sourcePoint" />
            <mxPoint x="-1054" y="1069" as="targetPoint" />
          </mxGeometry>
        </mxCell>
        <mxCell id="Tsf_xWovIFk0rkydPiFg-46" value="" style="endArrow=blockThin;html=1;exitX=0;exitY=0;exitDx=0;exitDy=0;endFill=1;jumpSize=3;shadow=0;fillColor=#d5e8d4;strokeColor=#82b366;" edge="1" parent="1" source="Tsf_xWovIFk0rkydPiFg-28">
          <mxGeometry width="50" height="50" relative="1" as="geometry">
            <mxPoint x="-1122" y="1040" as="sourcePoint" />
            <mxPoint x="-1082" y="980" as="targetPoint" />
          </mxGeometry>
        </mxCell>
        <mxCell id="Tsf_xWovIFk0rkydPiFg-47" value="" style="endArrow=blockThin;html=1;exitX=0;exitY=0.5;exitDx=0;exitDy=0;endFill=1;jumpSize=3;shadow=0;fillColor=#d5e8d4;strokeColor=#82b366;" edge="1" parent="1" source="Tsf_xWovIFk0rkydPiFg-28">
          <mxGeometry width="50" height="50" relative="1" as="geometry">
            <mxPoint x="-1172" y="1050" as="sourcePoint" />
            <mxPoint x="-1102" y="1010" as="targetPoint" />
          </mxGeometry>
        </mxCell>
        <mxCell id="Tsf_xWovIFk0rkydPiFg-48" value="" style="endArrow=blockThin;html=1;exitX=0;exitY=1;exitDx=0;exitDy=0;endFill=1;jumpSize=3;shadow=0;fillColor=#d5e8d4;strokeColor=#82b366;" edge="1" parent="1" source="Tsf_xWovIFk0rkydPiFg-28">
          <mxGeometry width="50" height="50" relative="1" as="geometry">
            <mxPoint x="-1182" y="1050" as="sourcePoint" />
            <mxPoint x="-1082" y="1030" as="targetPoint" />
          </mxGeometry>
        </mxCell>
        <mxCell id="Tsf_xWovIFk0rkydPiFg-49" value="" style="endArrow=blockThin;html=1;exitX=0.5;exitY=1;exitDx=0;exitDy=0;endFill=1;jumpSize=3;shadow=0;fillColor=#d5e8d4;strokeColor=#82b366;" edge="1" parent="1" source="Tsf_xWovIFk0rkydPiFg-28">
          <mxGeometry width="50" height="50" relative="1" as="geometry">
            <mxPoint x="-1022" y="1070" as="sourcePoint" />
            <mxPoint x="-1042" y="1050" as="targetPoint" />
          </mxGeometry>
        </mxCell>
        <mxCell id="Tsf_xWovIFk0rkydPiFg-50" value="reply /file/xyg.jpg" style="text;html=1;align=center;verticalAlign=middle;whiteSpace=wrap;rounded=0;fontStyle=0;glass=0;strokeColor=#000000;fillColor=#ffffff;" vertex="1" parent="1">
          <mxGeometry x="-1317" y="1146" width="100" height="20" as="geometry" />
        </mxCell>
        <mxCell id="Tsf_xWovIFk0rkydPiFg-51" value="reply /file/xyg.jpg" style="text;html=1;align=center;verticalAlign=middle;whiteSpace=wrap;rounded=0;fontStyle=0;glass=0;strokeColor=#000000;fillColor=#ffffff;" vertex="1" parent="1">
          <mxGeometry x="-1122" y="1146" width="100" height="20" as="geometry" />
        </mxCell>
        <mxCell id="Tsf_xWovIFk0rkydPiFg-52" value="reply /file/xyg.jpg" style="text;html=1;align=center;verticalAlign=middle;whiteSpace=wrap;rounded=0;fontStyle=0;glass=0;strokeColor=#000000;fillColor=#ffffff;" vertex="1" parent="1">
          <mxGeometry x="-1042" y="964" width="100" height="20" as="geometry" />
        </mxCell>
        <mxCell id="Tsf_xWovIFk0rkydPiFg-53" value="reply /file/xyg.jpg" style="text;html=1;align=center;verticalAlign=middle;whiteSpace=wrap;rounded=0;fontStyle=0;glass=0;strokeColor=#000000;fillColor=#ffffff;" vertex="1" parent="1">
          <mxGeometry x="-1440" y="975" width="100" height="20" as="geometry" />
        </mxCell>
        <mxCell id="Tsf_xWovIFk0rkydPiFg-54" value="(a)" style="text;html=1;strokeColor=none;fillColor=none;align=center;verticalAlign=middle;whiteSpace=wrap;rounded=0;glass=0;" vertex="1" parent="1">
          <mxGeometry x="-1935" y="1160" width="40" height="20" as="geometry" />
        </mxCell>
        <mxCell id="Tsf_xWovIFk0rkydPiFg-55" value="(b)" style="text;html=1;strokeColor=none;fillColor=none;align=center;verticalAlign=middle;whiteSpace=wrap;rounded=0;glass=0;" vertex="1" parent="1">
          <mxGeometry x="-1630" y="1160" width="40" height="20" as="geometry" />
        </mxCell>
        <mxCell id="Tsf_xWovIFk0rkydPiFg-56" value="(c)" style="text;html=1;strokeColor=none;fillColor=none;align=center;verticalAlign=middle;whiteSpace=wrap;rounded=0;glass=0;" vertex="1" parent="1">
          <mxGeometry x="-1197" y="1166" width="40" height="20" as="geometry" />
        </mxCell>
        <mxCell id="Tsf_xWovIFk0rkydPiFg-58" value="C" style="ellipse;whiteSpace=wrap;html=1;aspect=fixed;shadow=0;fillColor=#dae8fc;strokeColor=default;fillStyle=solid;opacity=80;" vertex="1" parent="1">
          <mxGeometry x="-1015" y="1570" width="30" height="30" as="geometry" />
        </mxCell>
        <mxCell id="Tsf_xWovIFk0rkydPiFg-59" value="D" style="ellipse;whiteSpace=wrap;html=1;aspect=fixed;fillColor=#f8cecc;strokeColor=default;fillStyle=solid;opacity=80;" vertex="1" parent="1">
          <mxGeometry x="-985" y="1670" width="30" height="30" as="geometry" />
        </mxCell>
        <mxCell id="Tsf_xWovIFk0rkydPiFg-60" value="A" style="ellipse;whiteSpace=wrap;html=1;aspect=fixed;fillColor=#fff2cc;strokeColor=default;fillStyle=auto;opacity=80;" vertex="1" parent="1">
          <mxGeometry x="-925" y="1500" width="30" height="30" as="geometry" />
        </mxCell>
        <mxCell id="Tsf_xWovIFk0rkydPiFg-61" value="B" style="ellipse;whiteSpace=wrap;html=1;aspect=fixed;fillColor=#d5e8d4;strokeColor=default;fillStyle=solid;opacity=80;" vertex="1" parent="1">
          <mxGeometry x="-835" y="1570" width="30" height="30" as="geometry" />
        </mxCell>
        <mxCell id="Tsf_xWovIFk0rkydPiFg-62" value="E" style="ellipse;whiteSpace=wrap;html=1;aspect=fixed;fillColor=#ffe6cc;strokeColor=default;fillStyle=solid;opacity=80;" vertex="1" parent="1">
          <mxGeometry x="-855" y="1670" width="30" height="30" as="geometry" />
        </mxCell>
        <mxCell id="Tsf_xWovIFk0rkydPiFg-63" value="" style="endArrow=blockThin;html=1;entryX=0;entryY=0.5;entryDx=0;entryDy=0;exitX=0.5;exitY=1;exitDx=0;exitDy=0;fillColor=#fff2cc;strokeColor=default;endFill=1;opacity=80;" edge="1" parent="1" source="Tsf_xWovIFk0rkydPiFg-60" target="Tsf_xWovIFk0rkydPiFg-61">
          <mxGeometry width="50" height="50" relative="1" as="geometry">
            <mxPoint x="-945" y="1610" as="sourcePoint" />
            <mxPoint x="-895" y="1560" as="targetPoint" />
          </mxGeometry>
        </mxCell>
        <mxCell id="Tsf_xWovIFk0rkydPiFg-64" value="" style="endArrow=blockThin;html=1;exitX=0.5;exitY=1;exitDx=0;exitDy=0;fillColor=#fff2cc;strokeColor=default;endFill=1;opacity=80;" edge="1" parent="1" source="Tsf_xWovIFk0rkydPiFg-60" target="Tsf_xWovIFk0rkydPiFg-59">
          <mxGeometry width="50" height="50" relative="1" as="geometry">
            <mxPoint x="-889.3933982822018" y="1535.6066017177982" as="sourcePoint" />
            <mxPoint x="-825" y="1595" as="targetPoint" />
          </mxGeometry>
        </mxCell>
        <mxCell id="Tsf_xWovIFk0rkydPiFg-65" value="" style="endArrow=blockThin;html=1;entryX=1;entryY=0;entryDx=0;entryDy=0;fillColor=#fff2cc;strokeColor=default;endFill=1;opacity=80;" edge="1" parent="1" target="Tsf_xWovIFk0rkydPiFg-58">
          <mxGeometry width="50" height="50" relative="1" as="geometry">
            <mxPoint x="-910" y="1530" as="sourcePoint" />
            <mxPoint x="-979.5850884616343" y="1670.0014785258884" as="targetPoint" />
          </mxGeometry>
        </mxCell>
        <mxCell id="Tsf_xWovIFk0rkydPiFg-66" value="" style="endArrow=blockThin;html=1;exitX=0.5;exitY=1;exitDx=0;exitDy=0;entryX=0;entryY=0;entryDx=0;entryDy=0;fillColor=#fff2cc;strokeColor=default;endFill=1;opacity=80;" edge="1" parent="1" source="Tsf_xWovIFk0rkydPiFg-60" target="Tsf_xWovIFk0rkydPiFg-62">
          <mxGeometry width="50" height="50" relative="1" as="geometry">
            <mxPoint x="-900" y="1540" as="sourcePoint" />
            <mxPoint x="-954.5850884616343" y="1681.0114785258884" as="targetPoint" />
          </mxGeometry>
        </mxCell>
        <mxCell id="Tsf_xWovIFk0rkydPiFg-77" value="&lt;i style=&quot;font-size: 12px;&quot;&gt;&lt;font style=&quot;font-size: 12px;&quot; face=&quot;Times New Roman&quot;&gt;&lt;b style=&quot;font-size: 12px;&quot;&gt;I = /ucla/cs/catalog&lt;/b&gt;&lt;/font&gt;&lt;/i&gt;" style="text;html=1;align=center;verticalAlign=middle;whiteSpace=wrap;rounded=0;fontStyle=0;glass=0;strokeColor=default;fillColor=#ffffff;fillStyle=solid;fontSize=12;strokeWidth=0.2;" vertex="1" parent="1">
          <mxGeometry x="-963" y="1539" width="106" height="20" as="geometry" />
        </mxCell>
        <mxCell id="Tsf_xWovIFk0rkydPiFg-79" value="&lt;font style=&quot;font-size: 14px;&quot; face=&quot;Times New Roman&quot;&gt;at t = 0ms node A&amp;nbsp;&lt;br&gt;multicasts interest&lt;/font&gt;" style="text;html=1;strokeColor=none;fillColor=none;align=center;verticalAlign=middle;whiteSpace=wrap;rounded=0;glass=0;" vertex="1" parent="1">
          <mxGeometry x="-1060" y="1505" width="140" height="20" as="geometry" />
        </mxCell>
        <mxCell id="Tsf_xWovIFk0rkydPiFg-81" value="C" style="ellipse;whiteSpace=wrap;html=1;aspect=fixed;fillColor=#dae8fc;strokeColor=default;opacity=80;" vertex="1" parent="1">
          <mxGeometry x="-782" y="1569" width="30" height="30" as="geometry" />
        </mxCell>
        <mxCell id="Tsf_xWovIFk0rkydPiFg-82" value="D" style="ellipse;whiteSpace=wrap;html=1;aspect=fixed;fillColor=#f8cecc;strokeColor=default;opacity=80;" vertex="1" parent="1">
          <mxGeometry x="-705" y="1679" width="30" height="30" as="geometry" />
        </mxCell>
        <mxCell id="Tsf_xWovIFk0rkydPiFg-83" value="A" style="ellipse;whiteSpace=wrap;html=1;aspect=fixed;fillColor=#fff2cc;strokeColor=default;opacity=80;" vertex="1" parent="1">
          <mxGeometry x="-624" y="1489" width="30" height="30" as="geometry" />
        </mxCell>
        <mxCell id="Tsf_xWovIFk0rkydPiFg-84" value="B" style="ellipse;whiteSpace=wrap;html=1;aspect=fixed;fillColor=#d5e8d4;strokeColor=default;shadow=0;opacity=80;fillStyle=solid;" vertex="1" parent="1">
          <mxGeometry x="-490" y="1559" width="30" height="30" as="geometry" />
        </mxCell>
        <mxCell id="Tsf_xWovIFk0rkydPiFg-85" value="E" style="ellipse;whiteSpace=wrap;html=1;aspect=fixed;fillColor=#ffe6cc;strokeColor=default;opacity=80;" vertex="1" parent="1">
          <mxGeometry x="-536" y="1679" width="30" height="30" as="geometry" />
        </mxCell>
        <mxCell id="Tsf_xWovIFk0rkydPiFg-86" value="" style="endArrow=blockThin;html=1;exitX=1;exitY=0;exitDx=0;exitDy=0;endFill=1;jumpSize=3;shadow=0;fillColor=#dae8fc;strokeColor=default;opacity=80;" edge="1" parent="1" source="Tsf_xWovIFk0rkydPiFg-81">
          <mxGeometry width="50" height="50" relative="1" as="geometry">
            <mxPoint x="-762" y="1589" as="sourcePoint" />
            <mxPoint x="-722" y="1549" as="targetPoint" />
          </mxGeometry>
        </mxCell>
        <mxCell id="Tsf_xWovIFk0rkydPiFg-87" value="" style="endArrow=blockThin;html=1;exitX=1;exitY=0;exitDx=0;exitDy=0;entryX=0.487;entryY=0.655;entryDx=0;entryDy=0;entryPerimeter=0;endFill=1;jumpSize=3;shadow=0;fillColor=#dae8fc;strokeColor=default;opacity=80;" edge="1" parent="1">
          <mxGeometry width="50" height="50" relative="1" as="geometry">
            <mxPoint x="-751.3933982822016" y="1583.3933982822018" as="sourcePoint" />
            <mxPoint x="-712.2349999999999" y="1579.9500000000003" as="targetPoint" />
          </mxGeometry>
        </mxCell>
        <mxCell id="Tsf_xWovIFk0rkydPiFg-88" value="" style="endArrow=blockThin;html=1;exitX=1;exitY=1;exitDx=0;exitDy=0;endFill=1;jumpSize=3;shadow=0;fillColor=#dae8fc;strokeColor=default;opacity=80;" edge="1" parent="1" source="Tsf_xWovIFk0rkydPiFg-81">
          <mxGeometry width="50" height="50" relative="1" as="geometry">
            <mxPoint x="-755" y="1597" as="sourcePoint" />
            <mxPoint x="-712" y="1609" as="targetPoint" />
          </mxGeometry>
        </mxCell>
        <mxCell id="Tsf_xWovIFk0rkydPiFg-89" value="" style="endArrow=blockThin;html=1;exitX=0;exitY=0;exitDx=0;exitDy=0;endFill=1;jumpSize=3;shadow=0;fillColor=#f8cecc;strokeColor=default;opacity=80;" edge="1" parent="1" source="Tsf_xWovIFk0rkydPiFg-82">
          <mxGeometry width="50" height="50" relative="1" as="geometry">
            <mxPoint x="-685" y="1673" as="sourcePoint" />
            <mxPoint x="-715" y="1659" as="targetPoint" />
          </mxGeometry>
        </mxCell>
        <mxCell id="Tsf_xWovIFk0rkydPiFg-90" value="" style="endArrow=blockThin;html=1;exitX=0.674;exitY=-0.036;exitDx=0;exitDy=0;endFill=1;jumpSize=3;shadow=0;fillColor=#f8cecc;strokeColor=default;exitPerimeter=0;opacity=80;" edge="1" parent="1">
          <mxGeometry width="50" height="50" relative="1" as="geometry">
            <mxPoint x="-684.78" y="1679.92" as="sourcePoint" />
            <mxPoint x="-675" y="1651" as="targetPoint" />
          </mxGeometry>
        </mxCell>
        <mxCell id="Tsf_xWovIFk0rkydPiFg-91" value="" style="endArrow=blockThin;html=1;endFill=1;jumpSize=3;shadow=0;fillColor=#f8cecc;strokeColor=default;opacity=80;" edge="1" parent="1">
          <mxGeometry width="50" height="50" relative="1" as="geometry">
            <mxPoint x="-673.61" y="1696.1599999999999" as="sourcePoint" />
            <mxPoint x="-635" y="1696" as="targetPoint" />
          </mxGeometry>
        </mxCell>
        <mxCell id="Tsf_xWovIFk0rkydPiFg-92" value="" style="endArrow=blockThin;html=1;exitX=0.988;exitY=0.293;exitDx=0;exitDy=0;exitPerimeter=0;endFill=1;jumpSize=3;shadow=0;fillColor=#f8cecc;strokeColor=default;opacity=80;" edge="1" parent="1" source="Tsf_xWovIFk0rkydPiFg-82">
          <mxGeometry width="50" height="50" relative="1" as="geometry">
            <mxPoint x="-669" y="1689" as="sourcePoint" />
            <mxPoint x="-645" y="1668" as="targetPoint" />
          </mxGeometry>
        </mxCell>
        <mxCell id="Tsf_xWovIFk0rkydPiFg-93" value="" style="endArrow=blockThin;html=1;exitX=0.5;exitY=1;exitDx=0;exitDy=0;endFill=1;jumpSize=3;shadow=0;fillColor=#dae8fc;strokeColor=default;opacity=80;" edge="1" parent="1" source="Tsf_xWovIFk0rkydPiFg-81">
          <mxGeometry width="50" height="50" relative="1" as="geometry">
            <mxPoint x="-745" y="1607" as="sourcePoint" />
            <mxPoint x="-742" y="1629" as="targetPoint" />
          </mxGeometry>
        </mxCell>
        <mxCell id="Tsf_xWovIFk0rkydPiFg-94" value="" style="endArrow=blockThin;html=1;exitX=0;exitY=0.5;exitDx=0;exitDy=0;endFill=1;jumpSize=3;shadow=0;fillColor=#fff2cc;strokeColor=default;opacity=80;" edge="1" parent="1" source="Tsf_xWovIFk0rkydPiFg-83">
          <mxGeometry width="50" height="50" relative="1" as="geometry">
            <mxPoint x="-644" y="1599" as="sourcePoint" />
            <mxPoint x="-654" y="1519" as="targetPoint" />
          </mxGeometry>
        </mxCell>
        <mxCell id="Tsf_xWovIFk0rkydPiFg-95" value="" style="endArrow=blockThin;html=1;exitX=0;exitY=1;exitDx=0;exitDy=0;endFill=1;jumpSize=3;shadow=0;fillColor=#fff2cc;strokeColor=default;opacity=80;" edge="1" parent="1" source="Tsf_xWovIFk0rkydPiFg-83">
          <mxGeometry width="50" height="50" relative="1" as="geometry">
            <mxPoint x="-634" y="1569" as="sourcePoint" />
            <mxPoint x="-634" y="1549" as="targetPoint" />
          </mxGeometry>
        </mxCell>
        <mxCell id="Tsf_xWovIFk0rkydPiFg-97" value="" style="endArrow=blockThin;html=1;exitX=0.766;exitY=0.987;exitDx=0;exitDy=0;exitPerimeter=0;endFill=1;jumpSize=3;shadow=0;fillColor=#fff2cc;strokeColor=default;opacity=80;" edge="1" parent="1" source="Tsf_xWovIFk0rkydPiFg-83">
          <mxGeometry width="50" height="50" relative="1" as="geometry">
            <mxPoint x="-614" y="1599" as="sourcePoint" />
            <mxPoint x="-584" y="1549" as="targetPoint" />
          </mxGeometry>
        </mxCell>
        <mxCell id="Tsf_xWovIFk0rkydPiFg-98" value="" style="endArrow=blockThin;html=1;exitX=0;exitY=0.5;exitDx=0;exitDy=0;endFill=1;jumpSize=3;shadow=0;fillColor=#ffe6cc;strokeColor=default;opacity=80;" edge="1" parent="1" source="Tsf_xWovIFk0rkydPiFg-85">
          <mxGeometry width="50" height="50" relative="1" as="geometry">
            <mxPoint x="-566" y="1669" as="sourcePoint" />
            <mxPoint x="-576" y="1694" as="targetPoint" />
          </mxGeometry>
        </mxCell>
        <mxCell id="Tsf_xWovIFk0rkydPiFg-99" value="" style="endArrow=blockThin;html=1;exitX=0;exitY=0;exitDx=0;exitDy=0;endFill=1;jumpSize=3;shadow=0;fillColor=#ffe6cc;strokeColor=default;opacity=80;" edge="1" parent="1" source="Tsf_xWovIFk0rkydPiFg-85">
          <mxGeometry width="50" height="50" relative="1" as="geometry">
            <mxPoint x="-576" y="1679" as="sourcePoint" />
            <mxPoint x="-576" y="1669" as="targetPoint" />
          </mxGeometry>
        </mxCell>
        <mxCell id="Tsf_xWovIFk0rkydPiFg-100" value="" style="endArrow=blockThin;html=1;exitX=0.238;exitY=-0.068;exitDx=0;exitDy=0;exitPerimeter=0;endFill=1;jumpSize=3;shadow=0;fillColor=#ffe6cc;strokeColor=default;opacity=80;" edge="1" parent="1">
          <mxGeometry width="50" height="50" relative="1" as="geometry">
            <mxPoint x="-527.8599999999999" y="1677.96" as="sourcePoint" />
            <mxPoint x="-545" y="1640" as="targetPoint" />
          </mxGeometry>
        </mxCell>
        <mxCell id="Tsf_xWovIFk0rkydPiFg-101" value="" style="endArrow=blockThin;html=1;endFill=1;jumpSize=3;shadow=0;fillColor=#ffe6cc;strokeColor=default;opacity=80;" edge="1" parent="1">
          <mxGeometry width="50" height="50" relative="1" as="geometry">
            <mxPoint x="-512" y="1678" as="sourcePoint" />
            <mxPoint x="-498" y="1638" as="targetPoint" />
          </mxGeometry>
        </mxCell>
        <mxCell id="Tsf_xWovIFk0rkydPiFg-102" value="" style="endArrow=blockThin;html=1;exitX=0;exitY=0;exitDx=0;exitDy=0;endFill=1;jumpSize=3;shadow=0;fillColor=#d5e8d4;strokeColor=default;opacity=80;" edge="1" parent="1" source="Tsf_xWovIFk0rkydPiFg-84">
          <mxGeometry width="50" height="50" relative="1" as="geometry">
            <mxPoint x="-560" y="1609" as="sourcePoint" />
            <mxPoint x="-520" y="1549" as="targetPoint" />
          </mxGeometry>
        </mxCell>
        <mxCell id="Tsf_xWovIFk0rkydPiFg-103" value="" style="endArrow=blockThin;html=1;exitX=0;exitY=0.5;exitDx=0;exitDy=0;endFill=1;jumpSize=3;shadow=0;fillColor=#d5e8d4;strokeColor=default;opacity=80;" edge="1" parent="1" source="Tsf_xWovIFk0rkydPiFg-84">
          <mxGeometry width="50" height="50" relative="1" as="geometry">
            <mxPoint x="-610" y="1619" as="sourcePoint" />
            <mxPoint x="-530" y="1578" as="targetPoint" />
          </mxGeometry>
        </mxCell>
        <mxCell id="Tsf_xWovIFk0rkydPiFg-104" value="" style="endArrow=blockThin;html=1;exitX=0;exitY=1;exitDx=0;exitDy=0;endFill=1;jumpSize=3;shadow=0;fillColor=#d5e8d4;strokeColor=default;opacity=80;" edge="1" parent="1" source="Tsf_xWovIFk0rkydPiFg-84">
          <mxGeometry width="50" height="50" relative="1" as="geometry">
            <mxPoint x="-620" y="1619" as="sourcePoint" />
            <mxPoint x="-520" y="1599" as="targetPoint" />
          </mxGeometry>
        </mxCell>
        <mxCell id="Tsf_xWovIFk0rkydPiFg-105" value="" style="endArrow=blockThin;html=1;exitX=0.5;exitY=1;exitDx=0;exitDy=0;endFill=1;jumpSize=3;shadow=0;fillColor=#d5e8d4;strokeColor=default;opacity=80;" edge="1" parent="1" source="Tsf_xWovIFk0rkydPiFg-84">
          <mxGeometry width="50" height="50" relative="1" as="geometry">
            <mxPoint x="-460" y="1639" as="sourcePoint" />
            <mxPoint x="-487" y="1616" as="targetPoint" />
          </mxGeometry>
        </mxCell>
        <mxCell id="Tsf_xWovIFk0rkydPiFg-110" value="(a)" style="text;html=1;strokeColor=none;fillColor=none;align=center;verticalAlign=middle;whiteSpace=wrap;rounded=0;glass=0;" vertex="1" parent="1">
          <mxGeometry x="-935" y="1749" width="40" height="20" as="geometry" />
        </mxCell>
        <mxCell id="Tsf_xWovIFk0rkydPiFg-112" value="(c)" style="text;html=1;strokeColor=default;fillColor=none;align=center;verticalAlign=middle;whiteSpace=wrap;rounded=0;glass=0;" vertex="1" parent="1">
          <mxGeometry x="-629" y="1749" width="40" height="20" as="geometry" />
        </mxCell>
        <mxCell id="GBKKCKVT9f_5_bY6piKC-1" value="" style="endArrow=blockThin;html=1;rounded=0;endFill=1;dashed=1;fillColor=#f8cecc;strokeColor=default;opacity=80;" edge="1" parent="1">
          <mxGeometry width="50" height="50" relative="1" as="geometry">
            <mxPoint x="-975" y="1666" as="sourcePoint" />
            <mxPoint x="-991" y="1614" as="targetPoint" />
          </mxGeometry>
        </mxCell>
        <mxCell id="GBKKCKVT9f_5_bY6piKC-2" value="" style="endArrow=blockThin;html=1;rounded=0;entryX=0.098;entryY=0.5;entryDx=0;entryDy=0;entryPerimeter=0;endFill=1;dashed=1;fillColor=#f8cecc;strokeColor=default;opacity=80;" edge="1" parent="1">
          <mxGeometry width="50" height="50" relative="1" as="geometry">
            <mxPoint x="-968" y="1665" as="sourcePoint" />
            <mxPoint x="-949.75" y="1612" as="targetPoint" />
          </mxGeometry>
        </mxCell>
        <mxCell id="GBKKCKVT9f_5_bY6piKC-3" value="" style="endArrow=blockThin;html=1;rounded=0;endFill=1;dashed=1;fillColor=#f8cecc;strokeColor=default;opacity=80;" edge="1" parent="1">
          <mxGeometry width="50" height="50" relative="1" as="geometry">
            <mxPoint x="-956" y="1674" as="sourcePoint" />
            <mxPoint x="-911" y="1639" as="targetPoint" />
          </mxGeometry>
        </mxCell>
        <mxCell id="GBKKCKVT9f_5_bY6piKC-4" value="" style="endArrow=blockThin;html=1;rounded=0;entryX=0.151;entryY=0.786;entryDx=0;entryDy=0;entryPerimeter=0;exitX=0.098;exitY=0.786;exitDx=0;exitDy=0;exitPerimeter=0;endFill=1;dashed=1;fillColor=#f8cecc;strokeColor=default;opacity=80;" edge="1" parent="1">
          <mxGeometry width="50" height="50" relative="1" as="geometry">
            <mxPoint x="-952.75" y="1686.0800000000004" as="sourcePoint" />
            <mxPoint x="-893.125" y="1686.0800000000004" as="targetPoint" />
          </mxGeometry>
        </mxCell>
        <mxCell id="GBKKCKVT9f_5_bY6piKC-8" value="&lt;font style=&quot;font-size: 12px;&quot; face=&quot;Times New Roman&quot;&gt;multicast reply&amp;nbsp;&lt;br style=&quot;border-color: var(--border-color);&quot;&gt;data&amp;nbsp;&lt;i&gt;/ucla/cs/catalog&lt;/i&gt;&lt;/font&gt;" style="text;html=1;align=center;verticalAlign=middle;resizable=0;points=[];autosize=1;strokeColor=none;fillColor=none;" vertex="1" parent="1">
          <mxGeometry x="-747" y="1705" width="120" height="40" as="geometry" />
        </mxCell>
        <mxCell id="GBKKCKVT9f_5_bY6piKC-10" value="&lt;font style=&quot;font-size: 12px;&quot; face=&quot;Times New Roman&quot;&gt;multicast reply&amp;nbsp;&lt;br style=&quot;border-color: var(--border-color);&quot;&gt;data&amp;nbsp;&lt;i&gt;/ucla/cs/catalog&lt;/i&gt;&lt;/font&gt;" style="text;html=1;align=center;verticalAlign=middle;resizable=0;points=[];autosize=1;strokeColor=none;fillColor=none;" vertex="1" parent="1">
          <mxGeometry x="-581" y="1705" width="120" height="40" as="geometry" />
        </mxCell>
        <mxCell id="GBKKCKVT9f_5_bY6piKC-7" value="&lt;font style=&quot;font-size: 12px;&quot; face=&quot;Times New Roman&quot;&gt;multicast reply&amp;nbsp;&lt;br style=&quot;border-color: var(--border-color);&quot;&gt;data&amp;nbsp;&lt;i&gt;/ucla/cs/catalog&lt;/i&gt;&lt;/font&gt;" style="text;html=1;align=center;verticalAlign=middle;resizable=0;points=[];autosize=1;strokeColor=none;fillColor=none;" vertex="1" parent="1">
          <mxGeometry x="-747" y="1476" width="120" height="40" as="geometry" />
        </mxCell>
        <mxCell id="GBKKCKVT9f_5_bY6piKC-14" value="&lt;font style=&quot;font-size: 12px;&quot; face=&quot;Times New Roman&quot;&gt;at t = 10ms node D&amp;nbsp;&lt;br&gt;multicasts the same interest&lt;/font&gt;" style="text;html=1;strokeColor=none;fillColor=none;align=center;verticalAlign=middle;whiteSpace=wrap;rounded=0;glass=0;" vertex="1" parent="1">
          <mxGeometry x="-1022" y="1697" width="140" height="35" as="geometry" />
        </mxCell>
        <mxCell id="GBKKCKVT9f_5_bY6piKC-15" value="&lt;i style=&quot;&quot;&gt;&lt;font style=&quot;font-size: 12px;&quot; face=&quot;Times New Roman&quot;&gt;I = /ucla/cs/catalog&lt;/font&gt;&lt;/i&gt;" style="text;html=1;align=center;verticalAlign=middle;whiteSpace=wrap;rounded=0;fontStyle=0;glass=0;strokeColor=default;fillColor=#ffffff;fillStyle=solid;rotation=25;fontSize=10;strokeWidth=0.2;" vertex="1" parent="1">
          <mxGeometry x="-999.68" y="1646" width="99.36" height="20" as="geometry" />
        </mxCell>
      </root>
    </mxGraphModel>
  </diagram>
</mxfile>
